<svg width="121" height="107" viewBox="0 0 121 107" fill="none" xmlns="http://www.w3.org/2000/svg">
<path d="M99.0404 37.6601C99.5788 49.4106 96.4141 59.8516 87.4847 68.0025C80.9189 73.9958 73.0636 77.375 64.0606 78.0311C57.2742 78.5264 50.4852 78.1348 43.6357 78.3164C45.8523 72.8444 48.0558 67.4994 50.8922 62.2738C49.4609 62.0378 48.1635 61.8562 46.8792 61.6047C46.0231 61.4387 45.6974 61.9937 45.335 62.5513C43.4834 65.404 41.9628 68.4304 40.4579 71.4673C39.473 73.459 38.5013 75.4585 37.569 77.4761C37.3063 78.0518 36.9885 78.3086 36.311 78.293C34.1101 78.2463 31.9093 78.2463 29.7084 78.293C28.9389 78.3112 28.6211 78.1374 28.6185 77.3076C28.5922 71.8615 28.5239 66.3946 28.4635 60.9356C28.4412 60.7455 28.4767 60.5532 28.5656 60.3832C28.6545 60.2132 28.7927 60.0733 28.9625 59.9812C39.2997 53.0232 47.0841 43.7389 53.6814 33.3862C55.1784 31.0366 56.6938 28.6974 58.2486 26.3841C59.5118 24.5039 62.7474 24.1693 64.2576 25.8654C67.5142 29.5454 69.5102 33.8763 70.5843 38.6352C72.2809 46.0885 70.0591 52.935 67.3382 59.7141C67.094 60.3235 66.813 60.92 66.5766 61.5295C66.557 61.6515 66.557 61.7757 66.5766 61.8977C68.0631 62.0378 69.3789 61.4128 70.65 60.8604C75.7293 58.6612 79.4692 55.1057 81.5755 49.9682C81.6604 49.7955 81.7578 49.6291 81.867 49.4703C82.0587 49.6648 82.2268 49.5585 82.3922 49.4288L88.0546 45.0486C91.5528 42.3592 94.9408 39.4936 99.0404 37.6601ZM59.9688 47.4319C59.194 47.3593 58.5506 47.4085 57.9859 47.227C56.8172 46.851 56.2736 47.3204 55.7325 48.3188C54.6143 50.3058 53.3235 52.193 51.8745 53.9594C50.3223 55.9122 50.3302 55.9615 52.8725 56.3946C53.5763 56.5139 54.38 57.0533 55.0392 56.0237C56.8581 53.2616 58.5044 50.3923 59.9688 47.4319ZM62.8078 32.9609C60.8539 32.7664 60.4442 33.8193 60.3338 35.3805C60.2235 36.9417 59.8086 38.4484 59.4698 39.9708C59.3358 40.5854 59.1179 41.1948 60.0765 41.1767C60.8328 41.1637 61.9149 41.8691 62.1775 40.4816C62.6476 38.0076 62.9969 35.5205 62.8078 32.9609Z" fill="#2686D8"/>
<path d="M99.0406 37.6596C94.941 39.4931 91.553 42.3588 88.0548 45.0481L82.3767 49.4568C82.2086 49.5865 82.0405 49.6928 81.8514 49.4983C87.8919 32.7451 76.9376 16.1423 60.9013 14.0002C55.6093 13.2948 50.2753 13.8005 44.9622 13.6242C43.8145 13.5853 44.0798 14.3036 44.0798 14.9053C44.0798 23.492 44.0614 32.0812 44.0955 40.6705C44.139 41.5688 43.8198 42.4474 43.2079 43.1134C39.1476 47.6726 34.9612 52.0943 29.9844 55.712C29.5484 56.0284 29.0862 56.3111 28.4348 56.7494V55.2193C28.4348 37.3855 28.4243 19.5518 28.4033 1.718C28.4033 0.421311 28.6397 0.0452709 30.0343 0.0556444C39.8068 0.130852 49.5872 -0.175165 59.3492 0.161974C74.3507 0.680648 86.2164 7.03442 94.0822 19.9105C96.4826 23.8395 98.0926 28.1056 98.5627 32.7737C98.7255 34.3841 99.1667 35.9946 99.0406 37.6596Z" fill="#033D7B"/>
<path d="M0.0160808 92.935V84.7633C0.0160808 84.2732 -0.130993 83.726 0.719933 83.7623C3.56948 83.9075 6.43742 83.4822 9.27383 84.0346C13.9828 84.9552 17.0661 88.6663 16.7667 93.0543C16.4069 98.3344 13.3394 101.612 8.26533 101.95C5.82286 102.11 3.362 101.994 0.911655 102.064C0.123761 102.087 -0.00755535 101.804 0.000323592 101.104C0.037092 98.3811 0.0160808 95.6581 0.0160808 92.935ZM4.23131 92.878V95.601C4.23131 99.1228 4.23131 99.1228 7.82674 98.6067C10.4767 98.2255 12.084 96.4179 12.4622 93.3966C12.7773 90.8603 11.4694 88.5237 9.21343 87.642C7.80835 87.0947 6.32449 87.1233 4.84325 87.1233C4.10525 87.1233 4.21293 87.5823 4.21556 88.0387C4.23657 89.6544 4.23131 91.2649 4.23131 92.878Z" fill="#033D7B"/>
<path d="M39.077 101.545C38.7803 104.398 37.0626 106.325 34.2367 106.766C31.4502 107.201 28.753 106.895 26.1923 105.401C26.4751 105.039 26.7306 104.657 26.9566 104.258C27.4819 103.13 28.1778 102.723 29.3938 103.438C30.1423 103.877 31.0641 103.877 31.9282 103.89C34.5729 103.928 35.5578 102.837 35.3424 100.02C33.8874 101.221 32.3195 101.942 30.4312 101.555C28.8608 101.271 27.4604 100.403 26.518 99.1307C24.6402 96.6151 25.0551 91.9237 27.3059 89.7945C29.0156 88.1815 32.8211 87.2816 35.4869 89.9475C35.366 88.4979 36.196 88.4356 37.1992 88.5601C37.8532 88.6405 38.5124 88.6275 39.1742 88.6561C39.1409 92.9524 39.1085 97.2487 39.077 101.545ZM29.4831 94.7608C29.4831 97.0949 30.5625 98.3319 32.6347 98.3267C34.4232 98.3267 35.5236 97.0482 35.5236 94.9968C35.5236 92.6887 34.3733 91.322 32.4351 91.3324C30.5599 91.3428 29.4962 92.5798 29.4831 94.7608Z" fill="#033D7B"/>
<path d="M54.7489 101.272C54.4521 104.124 52.7345 106.051 49.9086 106.492C47.1221 106.928 44.4249 106.622 41.8642 105.128C42.147 104.766 42.4024 104.384 42.6285 103.984C43.1537 102.856 43.8497 102.449 45.0657 103.165C45.8142 103.603 46.736 103.603 47.6001 103.616C50.2448 103.655 51.2296 102.563 51.0143 99.7468C49.5593 100.947 47.9914 101.668 46.1031 101.282C44.5327 100.998 43.1323 100.13 42.1899 98.8572C40.3121 96.3417 40.727 91.6503 42.9778 89.5211C44.6875 87.908 48.493 87.0081 51.1587 89.6741C51.0379 88.2244 51.8678 88.1622 52.8711 88.2867C53.525 88.3671 54.1842 88.3541 54.8461 88.3826C54.8128 92.679 54.7804 96.9753 54.7489 101.272ZM45.155 94.4874C45.155 96.8214 46.2344 98.0585 48.3066 98.0533C50.0951 98.0533 51.1955 96.7748 51.1955 94.7234C51.1955 92.4153 50.0452 91.0486 48.107 91.059C46.2318 91.0693 45.1681 92.3064 45.155 94.4874Z" fill="#033D7B"/>
<path d="M89.5768 102.054C88.1928 102.054 87.0188 102.01 85.8527 102.069C85.0359 102.111 84.9913 101.551 84.8153 101.032C83.7884 98.0365 83.7858 98.0365 80.6552 98.0391H80.5003C77.283 98.0391 77.2095 98.0184 76.2667 101.086C75.92 102.217 75.2161 102.072 74.4282 102.069C71.6155 102.069 71.6102 102.069 72.5426 99.4759C74.2549 94.7118 76.025 89.9634 77.6639 85.1734C78.0342 84.0894 78.4649 83.6978 79.6494 83.7315C82.9086 83.8222 82.8902 83.7678 83.9959 86.815C85.8054 91.8046 87.6465 96.7917 89.5768 102.054ZM78.2495 94.6807H81.9264C82.3466 94.6807 82.7878 94.7274 82.5541 94.0531C81.8765 92.1055 81.2225 90.1501 80.453 87.8938L78.2495 94.6807Z" fill="#033D7B"/>
<path d="M94.9471 89.9137C99.2831 86.3556 104.2 89.0449 104.914 93.5081C105.268 95.7255 105.095 97.8028 103.934 99.753C102.217 102.629 98.6633 103.207 95.236 101.021C95.236 102.717 95.2071 104.297 95.2517 105.873C95.2701 106.566 95.102 106.81 94.3351 106.841C91.2466 106.957 91.2519 106.991 91.2545 103.944C91.2545 99.2499 91.2939 94.5533 91.2256 89.8618C91.2256 88.7752 91.5276 88.407 92.5808 88.5781C92.8864 88.6094 93.1944 88.6094 93.5 88.5781C94.3693 88.5366 95.3069 88.3836 94.9471 89.9137ZM101.085 95.1005C101.03 94.0009 100.788 92.686 99.3855 91.9391C97.5471 90.9563 95.5958 91.9391 95.1624 94.0657C94.7291 96.1923 95.3174 98.1995 96.5281 98.8427C98.75 100.012 101.048 98.2748 101.085 95.1005Z" fill="#033D7B"/>
<path d="M110.886 90.3236C112.785 88.2281 114.857 87.7743 117.1 88.6457C119.876 89.7245 120.777 92.1337 120.974 94.8179C121.263 98.6146 119.212 101.664 116.047 102.378C114.264 102.782 112.756 102.245 111.228 100.822C111.228 102.761 111.188 104.398 111.246 106.029C111.27 106.768 111.046 106.944 110.306 106.96C107.236 107.03 107.236 107.059 107.236 104.061C107.236 99.3667 107.27 94.6727 107.207 89.9786C107.194 88.8972 107.39 88.4226 108.596 88.5679C109.673 88.7079 111.151 88.0232 110.886 90.3236ZM117.058 95.2017C117.15 94.683 116.929 93.975 116.638 93.3474C116.415 92.805 116.023 92.3469 115.519 92.0395C115.014 91.7322 114.424 91.5917 113.833 91.6384C113.264 91.6335 112.71 91.8142 112.256 92.1523C111.802 92.4904 111.474 92.967 111.322 93.5082C110.919 94.7743 110.919 96.1322 111.322 97.3983C111.887 99.2681 114.327 99.862 115.787 98.542C116.74 97.6939 117.05 96.6047 117.058 95.2017Z" fill="#033D7B"/>
<path d="M61.5379 96.4155C62.352 99.4757 64.6316 100.368 66.9139 98.5551C67.5626 98.0364 68.0248 98.2957 68.5816 98.4539C69.2172 98.6277 69.8423 98.8378 70.4726 99.0297C68.9808 102.676 62.6462 103.412 59.6732 100.656C56.9707 98.1531 56.6056 93.3709 58.9667 90.5934C61.2411 87.9145 65.6454 87.4165 68.5343 89.5561C70.6354 91.1121 71.1134 93.3035 71.0083 95.7412C70.9716 96.5685 70.4332 96.4181 69.9447 96.4181C67.187 96.4181 64.4268 96.4155 61.5379 96.4155ZM64.2456 93.7314C64.9573 93.7314 65.6717 93.6951 66.3834 93.7314C67.2842 93.7884 67.2974 93.3865 66.9796 92.7459C66.1208 91.0265 63.2502 90.7205 62.0631 92.2454C61.7637 92.6266 61.3488 93.1012 61.5956 93.581C61.7821 93.9441 62.3336 93.6951 62.7197 93.721C63.2266 93.7547 63.7387 93.7314 64.2456 93.7314Z" fill="#033D7B"/>
<path d="M23.067 95.3109C23.067 97.23 23.0407 99.1491 23.067 101.068C23.0801 101.794 22.9698 102.09 22.0953 102.087C19.2063 102.087 19.2063 102.134 19.1774 99.2969C19.1643 96.1641 19.1643 93.0262 19.075 89.9141C19.0435 88.8768 19.272 88.5267 20.3882 88.5526C23.0591 88.6122 23.0617 88.5526 23.0723 91.229C23.0723 92.5931 23.0723 93.9572 23.0723 95.3239L23.067 95.3109Z" fill="#033D7B"/>
<path d="M21.4522 83.7316C22.2926 83.5812 23.2486 83.6045 23.0858 85.4225C22.9755 86.6543 22.789 87.2379 21.3629 87.1653C19.0491 87.0434 19.191 87.116 18.9992 85.1658C18.8233 83.2752 20.055 83.8224 21.4522 83.7316Z" fill="#033D7B"/>
<path d="M39.0771 101.545C39.1034 97.2523 39.1305 92.9594 39.1586 88.6665C39.3293 92.9611 39.4895 97.2557 39.0771 101.545Z" fill="#2686D8"/>
<path d="M54.749 101.272C54.7753 96.9789 54.8024 92.686 54.8304 88.3931C55.0011 92.6877 55.1614 96.9823 54.749 101.272Z" fill="#2686D8"/>
<path d="M59.9686 47.4317C58.5042 50.3921 56.8579 53.2614 55.039 56.0235C54.3798 57.0609 53.5761 56.5137 52.8723 56.3944C50.33 55.9613 50.3221 55.912 51.8743 53.9592C53.3232 52.1929 54.6141 50.3056 55.7323 48.3186C56.2733 47.3202 56.817 46.8508 57.9857 47.2268C58.5504 47.4084 59.1938 47.3591 59.9686 47.4317Z" fill="#E0F4FE"/>
<path d="M62.8077 32.9608C62.9968 35.5204 62.6475 38.0075 62.1748 40.4816C61.9122 41.869 60.8328 41.1636 60.0737 41.1766C59.1151 41.1947 59.3331 40.5853 59.4671 39.9707C59.8006 38.4484 60.2103 36.9235 60.3311 35.3804C60.4519 33.8373 60.8538 32.7663 62.8077 32.9608Z" fill="#E0F4FE"/>
<path d="M4.23143 92.8784C4.23143 91.2653 4.23143 89.6548 4.23143 88.0418C4.23143 87.5853 4.12112 87.1211 4.85912 87.1263C6.34036 87.1263 7.82422 87.0952 9.2293 87.645C11.4853 88.5267 12.7932 90.8634 12.4781 93.3997C12.0999 96.421 10.4926 98.2285 7.84261 98.6098C4.24719 99.1284 4.24719 99.1284 4.24719 95.604V92.881L4.23143 92.8784Z" stroke="#E0F4FE" stroke-miterlimit="10"/>
<path d="M29.4835 94.761C29.4966 92.5799 30.5603 91.3429 32.4355 91.3325C34.3737 91.3325 35.5267 92.6889 35.524 94.997C35.524 97.0483 34.4131 98.3217 32.6351 98.3269C30.5629 98.332 29.4704 97.095 29.4835 94.761Z" stroke="#E0F4FE" stroke-miterlimit="10"/>
<path d="M45.1549 94.4875C45.168 92.3065 46.2317 91.0695 48.1069 91.0591C50.0451 91.0591 51.198 92.4154 51.1954 94.7235C51.1954 96.7749 50.0845 98.0482 48.3065 98.0534C46.2343 98.0586 45.1418 96.8216 45.1549 94.4875Z" stroke="#E0F4FE" stroke-miterlimit="10"/>
<path d="M78.249 94.6806L80.4656 87.8911C81.2299 90.1473 81.8838 92.1028 82.5667 94.0504C82.8004 94.7247 82.3592 94.678 81.939 94.678L78.249 94.6806Z" stroke="#E0F4FE" stroke-miterlimit="10"/>
<path d="M101.085 95.1008C101.051 98.2854 98.7529 100.028 96.5284 98.843C95.3177 98.1998 94.7347 96.1615 95.1628 94.066C95.5908 91.9706 97.5474 90.954 99.3859 91.9394C100.786 92.676 101.027 93.9908 101.085 95.1008Z" stroke="#E0F4FE" stroke-miterlimit="10"/>
<path d="M117.058 95.2016C117.058 96.6046 116.741 97.6938 115.808 98.5315C114.337 99.8515 111.898 99.2576 111.343 97.3878C110.94 96.1217 110.94 94.7639 111.343 93.4978C111.495 92.9566 111.823 92.4799 112.277 92.1418C112.731 91.8037 113.286 91.623 113.854 91.6279C114.445 91.5812 115.036 91.7217 115.54 92.029C116.044 92.3364 116.436 92.7946 116.659 93.337C116.93 93.9749 117.15 94.6726 117.058 95.2016Z" stroke="#E0F4FE" stroke-miterlimit="10"/>
<path d="M64.2456 93.7312C63.7388 93.7312 63.2266 93.7545 62.7198 93.7312C62.3337 93.7052 61.7822 93.9542 61.5957 93.5911C61.3488 93.1114 61.7638 92.6368 62.0632 92.2556C63.2503 90.7307 66.1208 91.0367 66.9796 92.7561C67.2974 93.3966 67.2843 93.7934 66.3835 93.7416C65.6717 93.6975 64.9574 93.7416 64.2456 93.7416V93.7312Z" stroke="#E0F4FE" stroke-miterlimit="10"/>
</svg>
